<?xml version="1.0" encoding="utf-8"?>
<!-- Generator: Adobe Illustrator 24.3.0, SVG Export Plug-In . SVG Version: 6.00 Build 0)  -->
<svg version="1.1" id="Layer_1" xmlns="http://www.w3.org/2000/svg" xmlns:xlink="http://www.w3.org/1999/xlink" x="0px" y="0px"
	 viewBox="0 0 1200 800" style="enable-background:new 0 0 1200 800;" xml:space="preserve">
<style type="text/css">
	.st0{display:none;fill:none;stroke:#3BB44A;stroke-width:2;stroke-linecap:round;stroke-miterlimit:10;}
	.st1{display:none;}
	.st2{display:inline;fill:none;stroke:#072F54;stroke-miterlimit:10;}
	.st3{display:inline;fill:#FFFFFF;stroke:#072F54;stroke-miterlimit:10;}
	.st4{display:inline;fill:#0DB14B;}
	.st5{fill:#072F54;}
	.st6{enable-background:new    ;}
	.st7{fill:#0DB14B;}
	.st8{fill:none;stroke:#231F20;stroke-miterlimit:10;}
</style>
<g id="Layer_1_1_">
	<line class="st0" x1="401.1" y1="475.9" x2="760.7" y2="475.9"/>
	<g class="st1">
		<line class="st2" x1="418" y1="456.7" x2="769.3" y2="456.7"/>
		<circle class="st3" cx="591.2" cy="456.8" r="23"/>
		<path class="st4" d="M578.4,457c-1.1,0.5-1.9,1.1-2.3,1.5c-0.2,0.2-0.5,0.2-0.7,0l0,0c-0.2-0.2-0.2-0.5,0-0.7
			c1.3-1.4,3.7-4,9.8-4.3c7.3-0.4,8.9,5.1,15.4,3.8c0,0-3.2,0.2-9.2-4c-4.8-3.4-10.3-0.7-10.5-0.7c0-0.1,3-4.5,8.8-4.5
			c6.4,0,9.2,8.2,16.6,7.2c0,0-4.7,8.4-12.8,8.4c-5.4,0-8.4-3.7-11.1-6.2C581.2,456.7,579.7,456.5,578.4,457z"/>
	</g>
	<g>
		<path class="st5" d="M401.4,351.9c7.1,0,12.4,1.5,16.1,4.4c3.7,2.9,5.5,7.3,5.5,13.2c0,3.3-0.5,6.2-1.4,8.8s-2.4,4.8-4.4,6.6
			c-2,1.8-4.6,3.2-7.7,4.1s-6.9,1.4-11.2,1.4h-53.7l11.5-16.5h43.6c2.1,0,3.7-0.4,4.6-1.1c1-0.7,1.5-1.9,1.5-3.6s-0.5-2.8-1.5-3.5
			s-2.5-1-4.6-1h-31.4c-3.7,0-7-0.5-9.6-1.3c-2.7-0.9-4.9-2.1-6.7-3.7s-3.1-3.5-4-5.8c-0.9-2.3-1.3-4.8-1.3-7.5c0-3,0.5-5.7,1.4-8.2
			s2.4-4.5,4.4-6.3c2-1.7,4.5-3.1,7.7-4s6.9-1.4,11.2-1.4h50.1L410,343h-40c-2.1,0-3.6,0.3-4.6,1c-1,0.6-1.5,1.8-1.5,3.5
			s0.5,2.8,1.5,3.5c1,0.7,2.5,1,4.6,1L401.4,351.9L401.4,351.9z"/>
		<path class="st5" d="M500.9,390.4h-17.8v-24.7h-34.3v24.7h-17.9v-64.1h17.9V349h34.3v-22.7h17.8V390.4z"/>
		<path class="st5" d="M529.9,390.4h-17.8v-64.1h17.8V390.4z"/>
		<path class="st5" d="M558.5,326.3l25.9,42.5l27.1-42.5h21l-36.9,57.9c-1.3,1.9-2.8,3.5-4.7,5c-1.8,1.5-4.1,2.2-6.9,2.2
			c-2.7,0-5-0.7-6.8-2.1s-3.3-3.1-4.6-5.1l-36.1-57.9L558.5,326.3L558.5,326.3z"/>
		<path class="st5" d="M755.4,350.1c1.3,2.5,2.4,4.7,3.3,6.6s1.8,3.6,2.5,5s1.3,2.8,1.9,4c0.5,1.2,1.1,2.4,1.6,3.5
			c0.5-1.1,1-2.3,1.5-3.5c0.5-1.2,1.2-2.5,1.9-4c0.7-1.5,1.5-3.2,2.5-5s2-4,3.3-6.5l9.2-18.2c1-2,2.3-3.7,3.9-4.9
			c1.6-1.2,3.5-1.9,5.9-1.9c2.2,0,4.3,0.7,6.1,2.1c1.8,1.4,3.1,3.7,3.9,6.7l14.6,56.3h-17.8l-5.4-22.3c-0.9-3.6-1.7-6.8-2.3-9.6
			c-0.6-2.7-1.2-5.4-1.6-8c-1,2.2-2.1,4.7-3.3,7.4c-1.2,2.7-2.8,6.1-4.7,10.3l-7.8,16.1c-0.8,1.6-1.5,2.9-2.3,3.8
			c-0.8,0.9-1.6,1.6-2.4,2.2c-0.8,0.5-1.7,0.9-2.6,1c-0.9,0.2-1.9,0.2-3,0.2s-2.1-0.1-3-0.2c-0.9-0.2-1.8-0.5-2.6-1
			s-1.6-1.2-2.4-2.2c-0.8-0.9-1.5-2.2-2.3-3.8l-7.8-16.2c-1-2.2-2-4.1-2.8-5.8c-0.8-1.7-1.5-3.3-2.2-4.6c-0.7-1.4-1.2-2.6-1.7-3.8
			c-0.5-1.1-1-2.3-1.4-3.4c-0.5,2.5-1,5.2-1.6,8s-1.4,6-2.2,9.6l-5.4,22.3h-17.5l14.9-56.3c0.8-3,2.1-5.2,4-6.7
			c1.8-1.4,3.9-2.1,6.1-2.1c2.3,0,4.2,0.6,5.8,1.8c1.6,1.2,2.9,2.9,3.9,5L755.4,350.1z"/>
		<g>
			<g class="st6">
				<path class="st7" d="M358.6,408.3h5l12.8,24.8h-5.8l-2.7-5.4h-14.1l-2.6,5.4H346L358.6,408.3z M365.8,423.1l-4.8-10.1l-5,10.1
					H365.8z"/>
				<path class="st7" d="M420.9,416.5v12.7h13.9v-4.3h-7.3v-3.6h11.6v7c0,3.8-1.1,4.8-4.7,4.8h-13.2c-3.6,0-4.7-1-4.7-4.8v-10.7
					c0-3.8,1.2-4.8,4.7-4.8h13.2c3.5,0,4.7,0.9,4.7,4.6c0,0.1,0,0.3,0,0.5l-4.4,0.8v-2.2H420.9z"/>
				<path class="st7" d="M481.7,412.7h16.4c2.9,0,4.3,1.1,4.3,3.9v4.8c0,2.8-1.3,3.9-4.3,3.9h-2.5l8.7,7.7h-6.4l-7.6-7.7h-4.2v7.7
					h-4.4V412.7z M486.1,416.2v5.6h10.1c1.3,0,2-0.3,2-1.6v-2.4c0-1.3-0.7-1.6-2-1.6H486.1z"/>
				<path class="st7" d="M549,412.7h14.1c3.6,0,4.7,0.9,4.7,4.8v10.7c0,3.8-1.2,4.8-4.7,4.8H549c-3.6,0-4.7-1-4.7-4.8v-10.7
					C544.2,413.6,545.4,412.7,549,412.7z M563.4,429.1v-12.7h-14.7v12.7H563.4z"/>
				<path class="st7" d="M621.3,433h-4.4v-16.6h-8.8v-3.6h22.1v3.6h-8.8V433z"/>
				<path class="st7" d="M670.9,412.7h19.6v3.6h-15.1v4.4h8.8v3.5h-8.8v5h15.3v3.8h-19.8V412.7z"/>
				<path class="st7" d="M736,416.5v12.7h12v-4.3l4.5,1v2.4c0,3.8-1.2,4.8-4.8,4.8h-11.4c-3.7,0-4.7-1.1-4.7-4.8v-10.7
					c0-3.8,1.1-4.8,4.7-4.8h11.4c3.6,0,4.8,1,4.8,4.8v2l-4.5,0.7v-3.7H736z"/>
				<path class="st7" d="M794.8,412.7h4.5v7.7h13.9v-7.7h4.4V433h-4.4v-8.5h-13.9v8.5h-4.5V412.7z"/>
			</g>
		</g>
		<g class="st6">
			<path d="M362,463.3l-4.6,10.2l-0.6,1.3l0-0.1l-0.1,0.2l-0.6-1.4l-2.8-6.1l-0.4-0.9l-0.4,0.9l-2.8,6.1l-0.1,0.2l-0.6,1.3l-0.6-1.2
				l-0.1-0.2l-4.6-10.2h1.1l3.7,8.2l0.4,0.9l0.4-0.9l2.8-6.1l0.6-1.4l0.6,1.4l2.8,6.1l0.4,1.1l0.4-1.2l3.7-8.2H362z"/>
			<path d="M382.9,463.3v11.6h-1v-5.7h-8.1v5.7h-1v-11.6h1v4.9h8.1v-4.9H382.9z"/>
			<path d="M393.8,464.3v-1H404v1H393.8z M394.8,473.9h9.2v1h-10.1V466h1v2.2h8v1h-8V473.9z"/>
			<path d="M424.6,474.9h-1.1l-3.5-5.7l-0.1-0.2l-0.2-0.3l-0.3,0.1l0,0l0,0h0h0l0,0c0,0,0,0-0.1,0l0,0l0,0l0,0l0,0l0,0
				c0,0-0.1,0-0.1,0c-0.1,0-0.2,0-0.3,0.1c0,0,0,0-0.1,0l0,0l0,0c0,0,0,0,0,0l0,0c0,0-0.1,0-0.1,0l0,0h0c0,0,0,0,0,0l0,0
				c0,0-0.1,0-0.1,0h0l0,0c-0.1,0-0.1,0-0.1,0c0,0,0,0,0,0c0,0-0.1,0-0.1,0h0l0,0h0l0,0c0,0-0.1,0-0.1,0l0,0h0c0,0-0.1,0-0.1,0h-2.7
				v5.8h-1v-6.8h3.7c0.7,0,1.3-0.1,1.9-0.4c0.5-0.2,1-0.6,1.5-1c0.6-0.5,1-1.2,1.2-2l0.2-0.5h-7.5v2.9l-0.4,0.2l-0.5,0.3v-4.3h9.5v0
				c0,0.4,0,0.9-0.1,1.3c-0.2,1.1-0.8,2.1-1.6,2.9c-0.1,0.1-0.1,0.1-0.2,0.2c0,0,0,0-0.1,0.1c0,0,0,0,0,0c0,0-0.1,0.1-0.1,0.1l0,0
				l0,0c0,0,0,0-0.1,0.1c0,0,0,0,0,0l0,0c-0.1,0-0.1,0.1-0.2,0.1c0,0,0,0-0.1,0.1l0,0l0,0c0,0-0.1,0-0.1,0.1l0,0l0,0l0,0
				c0,0,0,0,0,0c0,0,0,0,0,0l-0.3,0.2l0.2,0.3l0.2,0.4L424.6,474.9z"/>
			<path d="M435.5,464.3v-1h10.1v1H435.5z M436.5,473.9h9.2v1h-10.1V466h1v2.2h8v1h-8V473.9z"/>
			<path d="M472.7,464.3v-1H483v1H472.7z M477.3,474.9V466h1v8.9H477.3z"/>
			<path d="M503.9,463.3v11.6h-1v-5.7h-8.1v5.7h-1v-11.6h1v4.9h8.1v-4.9H503.9z"/>
			<path d="M514.7,464.3v-1h10.1v1H514.7z M515.7,473.9h9.2v1h-10.1V466h1v2.2h8v1h-8V473.9z"/>
			<path d="M561.5,474.1l0.8,0.8l-1,0h-1l0,0l-2.5,0h0l0,0c-3.2,0-5.8-2.6-5.8-5.8c0-3.2,2.6-5.8,5.8-5.8s5.8,2.6,5.8,5.8
				c0,1.4-0.5,2.7-1.4,3.8c-0.2,0.2-0.4,0.4-0.6,0.6l-0.3,0.3L561.5,474.1z M561.5,472.2c0.7-0.9,1.1-1.9,1.1-3.1
				c0-2.7-2.2-4.8-4.8-4.8s-4.8,2.2-4.8,4.8s2.2,4.8,4.8,4.8c0.4,0,0.8-0.1,1.2-0.2c0.3-0.1,0.7-0.2,1-0.4c0.3-0.2,0.6-0.3,0.8-0.6
				C561,472.6,561.3,472.4,561.5,472.2z"/>
			<path d="M584.3,463.3v7.5c0,0.9-0.3,1.7-0.9,2.3c-0.2,0.2-0.5,0.5-0.8,0.7c-1,0.8-2.2,1.2-3.5,1.2c-1.3,0-2.5-0.4-3.5-1.2
				c-0.3-0.2-0.5-0.4-0.8-0.7c-0.6-0.6-0.9-1.4-0.9-2.2v-7.5h1v6.4c0,2.2,1.8,4.1,4,4.2c0,0,0.1,0,0.1,0c0,0,0.1,0,0.1,0
				c2.2-0.1,4-1.9,4-4.2v-6.4H584.3z"/>
			<path d="M597.9,466.8l0.6,1.1l-3.6,7h-1.1L597.9,466.8z M605.6,474.9h-1.1l-4.4-8.4l-1-2l0.6-1.1l0.7,1.4L605.6,474.9z"/>
			<path d="M625.3,473.9v1h-8.8v-11.7h1v10.7H625.3z"/>
			<path d="M636.2,474.9v-11.6h1v11.6H636.2z"/>
			<path d="M648,464.3v-1h10.2v1H648z M652.6,474.9V466h1v8.9H652.6z"/>
			<path d="M678.1,463.3l-3.9,5.4l-0.1,0.2l0,0l0,0l-0.2,0.2l0,0.1l-0.1,0.1v5.6h-1v-5.6l-0.1-0.1l0-0.1l-0.2-0.2l0,0l0,0l0,0
				l-0.1-0.2l-3.9-5.4h1.2l3.3,4.5l0.3,0.4l0.3-0.3l0,0l0,0l3.3-4.5H678.1z"/>
			<path d="M706.1,466.4c0,1.2,1,2.2,2.2,2.2h3.9c1.1,0,2.2,0.6,2.7,1.6c0.3,0.5,0.4,1,0.4,1.6c0,0.5-0.1,1.1-0.4,1.6
				c-0.6,1-1.6,1.6-2.7,1.6h-7v-1h7c1.2,0,2.2-1,2.2-2.2s-1-2.2-2.2-2.2h-3.9c-1.1,0-2.2-0.6-2.7-1.6c-0.3-0.5-0.4-1-0.4-1.6
				c0-0.5,0.1-1.1,0.4-1.6c0.6-1,1.6-1.6,2.7-1.6h7.1v1h-7.1C707.1,464.3,706.1,465.2,706.1,466.4z"/>
			<path d="M735,466.2c0,0.7-0.3,1.4-0.8,2c-0.5,0.5-1.2,0.9-1.9,0.9l-0.3,0h-5.3v5.8h-1v-6.8h1v0h5.3c1.1,0,1.9-0.9,1.9-1.9
				c0-1.1-0.9-1.9-1.9-1.9c0,0-0.1,0-0.1,0c0,0,0,0,0,0h-5.1v2.8l-0.5,0.2l-0.5,0.2v-4.3h6.3l0.1,0C733.8,463.4,735,464.7,735,466.2
				z"/>
			<path d="M745.9,464.3v-1H756v1H745.9z M746.9,473.9h9.2v1h-10.1V466h1v2.2h8v1h-8V473.9z"/>
			<path d="M770.5,466.8l0.6,1.1l-3.6,7h-1.1L770.5,466.8z M778.2,474.9h-1.1l-4.4-8.4l-1-2l0.6-1.1l0.7,1.4L778.2,474.9z"/>
			<path d="M798.1,474.9h-1.4l-5.1-5.1l-2.2,2.2v2.9h-1v-3.3l1-1v0l2.2-2.2l5.2-5.2h1.3l-5.5,5.5l-0.3,0.3L798.1,474.9z
				 M789.4,468.2l-1,1v-5.8h1V468.2z"/>
			<path d="M809.3,466.4c0,1.2,1,2.2,2.2,2.2h3.9c1.1,0,2.2,0.6,2.7,1.6c0.3,0.5,0.4,1,0.4,1.6c0,0.5-0.1,1.1-0.4,1.6
				c-0.6,1-1.6,1.6-2.7,1.6h-7v-1h7c1.2,0,2.2-1,2.2-2.2s-1-2.2-2.2-2.2h-3.9c-1.1,0-2.2-0.6-2.7-1.6c-0.3-0.5-0.4-1-0.4-1.6
				c0-0.5,0.1-1.1,0.4-1.6c0.6-1,1.6-1.6,2.7-1.6h7.1v1h-7.1C810.3,464.3,809.3,465.2,809.3,466.4z"/>
		</g>
		<g>
			<path class="st5" d="M669.6,370.8c-1.2-1.8-2.3-3.4-3.4-4.9l-11.5-17l-30.1,42.5h-23.5l41.1-57.9c1.3-1.9,3-3.5,5.1-5
				c2-1.5,4.6-2.2,7.8-2.2c3,0,5.5,0.7,7.5,2.1s3.7,3.1,5.1,5.1l40,57.9h-24.2"/>
			<path class="st7" d="M643.4,381.5c-1,0.4-1.7,1-2,1.3c-0.2,0.1-0.4,0.1-0.6,0l0,0c-0.2-0.2-0.2-0.4,0-0.6
				c1.1-1.2,3.3-3.5,8.6-3.7c6.4-0.3,7.8,4.4,13.5,3.3c0,0-2.8,0.2-8.1-3.5c-4.2-2.9-9.1-0.6-9.2-0.6c0-0.1,2.6-3.9,7.7-3.9
				c5.6,0,8.1,7.2,14.6,6.4c0,0-4.1,7.3-11.2,7.3c-4.7,0-7.4-3.2-9.8-5.4C645.9,381.2,644.5,381,643.4,381.5z"/>
		</g>
	</g>
</g>
<g id="Layer_2_1_">
	<g>
		<circle class="st8" cx="832.7" cy="323" r="11.5"/>
		<g>
			<path d="M830,318.1c0-0.1,0.1-0.2,0.2-0.2h3.4c1.6,0,2.8,1.2,2.8,2.8c0,1.2-0.8,2.2-1.9,2.6l1.8,3.3c0.1,0.2,0,0.4-0.2,0.4h-0.7
				c-0.1,0-0.2-0.1-0.2-0.1l-1.7-3.4H831v3.3c0,0.1-0.1,0.2-0.2,0.2h-0.5c-0.1,0-0.2-0.1-0.2-0.2L830,318.1L830,318.1z M833.6,322.6
				c1,0,1.9-0.8,1.9-1.9c0-1-0.9-1.8-1.9-1.8H831v3.7L833.6,322.6L833.6,322.6z"/>
		</g>
	</g>
</g>
</svg>
